<?xml version="1.0" standalone="no"?>
<!DOCTYPE svg PUBLIC "-//W3C//DTD SVG 20010904//EN"
 "http://www.w3.org/TR/2001/REC-SVG-20010904/DTD/svg10.dtd">
<svg version="1.0" xmlns="http://www.w3.org/2000/svg"
 width="1024.000000pt" height="1024.000000pt" viewBox="0 0 1024.000000 1024.000000"
 preserveAspectRatio="xMidYMid meet">

<g transform="translate(0.000000,1024.000000) scale(0.100000,-0.100000)"
fill="#000000" stroke="none">
<path d="M8248 9294 c-132 -32 -268 -132 -326 -241 -34 -65 -62 -162 -62 -217
l0 -36 98 0 97 0 13 66 c14 76 30 110 73 158 40 46 88 75 152 92 264 70 493
-150 409 -392 -42 -119 -73 -158 -535 -663 l-297 -325 0 -73 0 -73 545 0 545
0 0 95 0 95 -395 0 c-259 0 -395 3 -395 10 0 6 98 115 217 243 436 467 505
563 535 737 41 236 -126 464 -383 525 -79 18 -215 18 -291 -1z"/>
<path d="M4833 9109 l-223 -160 0 -105 c0 -57 4 -104 9 -104 5 0 101 68 215
150 113 83 210 150 216 150 7 0 10 -246 10 -725 l0 -725 105 0 105 0 0 840 0
840 -107 0 -108 -1 -222 -160z"/>
<path d="M3410 3415 l0 -3415 85 0 85 0 0 1674 c0 920 3 1688 6 1705 l7 31
1618 0 1619 0 0 -1705 0 -1705 323 0 c834 0 1287 51 1636 184 204 79 450 220
616 356 338 276 601 686 715 1114 85 317 120 739 120 1434 l0 322 -1705 0
-1705 0 0 1619 0 1619 31 6 c17 3 785 6 1705 6 l1674 0 0 85 0 85 -3415 0
-3415 0 0 -3415z"/>
<path d="M1593 5779 l-223 -160 0 -105 c0 -57 4 -104 9 -104 5 0 101 68 215
150 113 83 210 150 216 150 7 0 10 -246 10 -725 l0 -725 105 0 105 0 0 840 0
840 -107 0 -108 -1 -222 -160z"/>
<path d="M1660 2563 c-54 -9 -150 -45 -196 -74 -105 -66 -177 -164 -208 -284
-29 -108 -31 -105 84 -105 l100 0 6 28 c20 95 80 184 148 219 88 46 207 54
307 23 124 -38 189 -121 197 -250 4 -68 1 -85 -20 -132 -64 -138 -173 -187
-420 -188 l-88 0 0 -84 0 -83 158 -6 c167 -5 252 -24 316 -70 154 -109 170
-340 33 -464 -142 -128 -426 -130 -570 -4 -39 35 -97 140 -97 178 0 23 -2 23
-100 23 l-100 0 0 -34 c0 -92 67 -225 149 -297 53 -47 182 -111 261 -130 72
-17 270 -18 340 0 161 39 313 149 374 271 49 99 61 166 47 265 -25 183 -139
309 -311 346 -51 11 -64 25 -32 35 152 48 251 165 271 322 29 227 -120 421
-374 487 -55 14 -211 19 -275 8z"/>
<path d="M4420 2453 c-34 -23 -48 -42 -59 -80 -21 -73 -12 -85 332 -430 l321
-323 -326 -327 c-280 -282 -326 -333 -330 -363 -7 -50 8 -95 43 -124 38 -32
68 -40 117 -31 32 6 81 50 362 331 l325 324 315 -315 c173 -173 329 -322 346
-330 68 -32 142 -4 177 67 39 79 39 79 -321 440 l-327 328 322 322 c356 358
359 363 328 443 -28 74 -114 107 -183 71 -15 -8 -169 -157 -342 -330 l-315
-316 -320 319 c-176 175 -330 324 -342 330 -32 16 -95 13 -123 -6z"/>
</g>
</svg>
